HIERARCHY
ROOT Hips
{
 OFFSET 0.000000 0.000000 0.000000
 CHANNELS 6 Xposition Yposition Zposition Yrotation Xrotation Zrotation
 JOINT Chest
 {
  OFFSET 0.000000 9.585900 0.002600
  CHANNELS 3 Yrotation Xrotation Zrotation
  JOINT Chest2
  {
   OFFSET 0.000000 9.601200 -0.005300
   CHANNELS 3 Yrotation Xrotation Zrotation
   JOINT Chest3
   {
    OFFSET 0.000000 9.561800 0.000000
    CHANNELS 3 Yrotation Xrotation Zrotation
    JOINT Chest4
    {
     OFFSET 0.000000 9.552100 0.000000
     CHANNELS 3 Yrotation Xrotation Zrotation
     JOINT Neck
     {
      OFFSET 0.000000 14.453000 0.000000
      CHANNELS 3 Yrotation Xrotation Zrotation
      JOINT Head
      {
       OFFSET 0.000000 8.936500 -0.011300
       CHANNELS 3 Yrotation Xrotation Zrotation
       End Site
       {
        OFFSET 0.000000 17.073600 -0.006000
       }
      }
     }
     JOINT RightCollar
     {
      OFFSET -2.921100 9.558500 0.000000
      CHANNELS 3 Yrotation Xrotation Zrotation
      JOINT RightShoulder
      {
       OFFSET -13.519700 0.000000 0.000000
       CHANNELS 3 Yrotation Xrotation Zrotation
       JOINT RightElbow
       {
        OFFSET 0.000000 -29.696600 0.000000
        CHANNELS 3 Yrotation Xrotation Zrotation
        JOINT RightWrist
        {
         OFFSET 0.000000 -24.004700 0.000000
         CHANNELS 3 Yrotation Xrotation Zrotation
         End Site
         {
          OFFSET 0.000000 -17.728500 0.000000
         }
        }
       }
      }
     }
     JOINT LeftCollar
     {
      OFFSET 2.921100 9.558500 0.000000
      CHANNELS 3 Yrotation Xrotation Zrotation
      JOINT LeftShoulder
      {
       OFFSET 13.519700 0.000000 0.000000
       CHANNELS 3 Yrotation Xrotation Zrotation
       JOINT LeftElbow
       {
        OFFSET 0.000000 -29.696600 0.000000
        CHANNELS 3 Yrotation Xrotation Zrotation
        JOINT LeftWrist
        {
         OFFSET 0.000000 -24.004700 0.000000
         CHANNELS 3 Yrotation Xrotation Zrotation
         End Site
         {
          OFFSET 0.000000 -17.728500 0.000000
         }
        }
       }
      }
     }
    }
   }
  }
 }
 JOINT RightHip
 {
  OFFSET -7.771700 -0.012900 -0.001300
  CHANNELS 3 Yrotation Xrotation Zrotation
  JOINT RightKnee
  {
   OFFSET 0.000000 -40.869800 0.001200
   CHANNELS 3 Yrotation Xrotation Zrotation
   JOINT RightAnkle
   {
    OFFSET 0.000000 -39.717900 0.002100
    CHANNELS 3 Yrotation Xrotation Zrotation
    JOINT RightToe
    {
     OFFSET 0.000000 -4.965400 11.033500
     CHANNELS 3 Yrotation Xrotation Zrotation
     End Site
     {
      OFFSET 0.000000 -1.423100 5.872300
     }
    }
   }
  }
 }
 JOINT LeftHip
 {
  OFFSET 7.771700 -0.012900 -0.001300
  CHANNELS 3 Yrotation Xrotation Zrotation
  JOINT LeftKnee
  {
   OFFSET 0.000000 -40.869800 0.001200
   CHANNELS 3 Yrotation Xrotation Zrotation
   JOINT LeftAnkle
   {
    OFFSET 0.000000 -39.717900 0.002100
    CHANNELS 3 Yrotation Xrotation Zrotation
    JOINT LeftToe
    {
     OFFSET 0.000000 -4.965400 11.033500
     CHANNELS 3 Yrotation Xrotation Zrotation
     End Site
     {
      OFFSET 0.000000 -1.423100 5.872300
     }
    }
   }
  }
 }
}
MOTION
Frames: 11
Frame Time: 0.008333
0.000000 85.388000 0.000000 0.000000 -5.767877 0.000000 0.000000 11.653817 0.000000 0.000000 -5.885947 0.000000 0.000000 -0.000000 0.000000 0.000000 -0.000000 0.000000 0.000000 12.528835 0.000000 0.000000 0.711642 0.000000 0.000000 -0.000000 0.000000 0.000000 0.000000 -90.000000 0.000000 -2.309062 0.000000 0.000000 2.309062 0.000000 0.000000 -0.000000 0.000000 0.000000 -0.000000 90.000000 0.000000 -2.309062 0.000000 0.000000 2.309062 0.000000 0.000000 8.520406 0.000000 0.000000 1.905762 0.000000 -0.000000 -4.658285 0.000000 0.000000 -0.000000 0.000000 0.000000 8.520406 0.000000 0.000000 1.905762 0.000000 -0.000000 -4.658285 0.000000 0.000000 -0.000000 0.000000
-56.100441 46.559803 5.757750 177.287584 -31.408308 -2.613631 -0.237420 19.055090 1.639893 -0.086129 2.256054 0.231231 -0.116096 3.757661 0.342462 -0.376337 16.572387 1.552893 5.595211 18.714559 0.388434 10.132160 -0.892137 -1.058869 -1.095394 3.139557 -2.579921 -5.377726 -8.788751 -14.826541 -70.297003 -62.664234 105.979161 -2.461251 -2.486802 -16.008994 0.267164 1.152474 2.395804 11.133507 -6.268939 13.655773 76.940608 -59.567000 -104.517884 6.714924 3.047861 27.999781 -5.308231 -55.787680 -6.376227 -144.465334 79.024838 -134.995569 -8.365264 -12.498278 -7.609573 0.026279 -0.316152 0.015595 0.923185 -57.665362 9.838556 -107.409370 82.121465 -111.998309 5.174675 -5.323041 5.331910 0.065286 0.136542 0.011444
-56.099652 46.562956 5.739413 177.290349 -31.424444 -2.616740 -0.234368 19.081652 1.629936 -0.079419 2.261637 0.230672 -0.120772 3.754101 0.339521 -0.371573 16.575413 1.542793 5.589203 18.702438 0.410158 10.110969 -0.908531 -1.027681 -1.108510 3.091066 -2.560550 -5.503843 -8.809297 -14.871619 -70.673355 -62.839735 106.362287 -2.454522 -2.665785 -16.186585 0.274984 1.182096 2.427562 11.467801 -6.332454 13.704389 77.297264 -59.712087 -104.613899 6.722722 2.922620 28.449006 -5.284086 -55.767144 -6.402768 -144.571491 79.008568 -135.093955 -8.348552 -12.502385 -7.600543 0.007343 -0.328611 0.015268 0.833329 -57.636837 9.892174 -107.548031 82.110645 -112.156928 5.192922 -5.357181 5.305800 0.067225 0.141169 0.012753
-56.099072 46.564592 5.720620 177.282932 -31.425804 -2.617448 -0.225976 19.086961 1.628343 -0.075116 2.267434 0.222149 -0.125696 3.755063 0.339131 -0.368755 16.579169 1.533262 5.597321 18.687729 0.432693 10.105819 -0.912850 -1.017023 -1.114943 3.052509 -2.539849 -5.616510 -8.843820 -14.908081 -71.019419 -62.980595 106.719204 -2.434588 -2.806501 -16.372673 0.282725 1.189746 2.453285 11.770765 -6.360374 13.739571 77.704412 -59.897585 -104.731225 6.727899 2.786006 28.862978 -5.262780 -55.763999 -6.416885 -144.672188 78.994688 -135.188651 -8.335924 -12.507973 -7.596939 0.022900 -0.319716 0.016560 0.744098 -57.623745 9.952598 -107.694469 82.098282 -112.323754 5.213773 -5.394009 5.275243 0.070812 0.147344 0.017318
-56.096766 46.564629 5.702230 177.254155 -31.412941 -2.623127 -0.196306 19.076967 1.643519 -0.076360 2.272368 0.214639 -0.126557 3.756977 0.338190 -0.365395 16.579792 1.530179 5.600516 18.685941 0.446901 10.134203 -0.928435 -0.953666 -1.112774 3.034107 -2.524169 -5.719540 -8.898625 -14.930293 -71.311019 -63.074020 107.026877 -2.418307 -2.903029 -16.544797 0.291405 1.202241 2.470091 12.033192 -6.374585 13.754451 78.139572 -60.092955 -104.859770 6.730814 2.640265 29.240138 -5.251901 -55.774246 -6.397724 -144.736396 78.989059 -135.244413 -8.332518 -12.507051 -7.596631 0.033870 -0.319555 0.017492 0.690534 -57.631813 10.014828 -107.876475 82.078367 -112.503160 5.223895 -5.430477 5.245648 0.086414 0.152378 0.022998
-56.097899 46.565333 5.680324 177.247086 -31.414331 -2.625114 -0.192735 19.086909 1.637932 -0.076142 2.273467 0.213254 -0.126229 3.756471 0.334878 -0.358285 16.574371 1.539296 5.623060 18.697019 0.454568 10.182639 -0.949898 -0.915213 -1.121644 2.998720 -2.515893 -5.777744 -8.916632 -14.945246 -71.560113 -63.115998 107.282761 -2.417579 -2.966384 -16.690025 0.276825 1.279647 2.469592 12.275367 -6.431787 13.740827 78.582776 -60.275631 -104.987652 6.738571 2.489296 29.580576 -5.247530 -55.771468 -6.395597 -144.831687 78.968225 -135.343402 -8.325991 -12.527533 -7.588443 0.041601 -0.316634 0.019225 0.581580 -57.617397 10.084381 -108.065700 82.072836 -112.719304 5.248059 -5.472094 5.221094 0.089922 0.159223 0.018324
-56.100330 46.565818 5.657290 177.246170 -31.419545 -2.629111 -0.195238 19.100949 1.627466 -0.075895 2.273675 0.212230 -0.122319 3.751740 0.341962 -0.362688 16.580521 1.523105 5.667171 18.687915 0.477550 10.248806 -0.965435 -0.889432 -1.119746 2.967769 -2.484141 -5.789327 -8.913240 -14.959674 -71.802422 -63.107841 107.504971 -2.437864 -3.003448 -16.803519 0.274038 1.312446 2.484779 12.477665 -6.443137 13.714469 79.010050 -60.428486 -105.103884 6.755032 2.344665 29.880378 -5.227872 -55.764501 -6.410573 -144.964612 78.950973 -135.474566 -8.321416 -12.539730 -7.589231 0.033241 -0.325620 0.035001 0.481444 -57.601946 10.136625 -108.285612 82.067094 -112.957557 5.278448 -5.514197 5.192124 0.084954 0.164455 0.015844
-56.103753 46.565813 5.634238 177.243926 -31.424806 -2.633065 -0.195882 19.113997 1.620589 -0.075023 2.273528 0.211314 -0.119356 3.747777 0.346944 -0.363242 16.595158 1.497712 5.722916 18.667072 0.510891 10.332553 -0.990752 -0.871162 -1.119638 2.936646 -2.420086 -5.839574 -8.961299 -14.991091 -71.859435 -63.030963 107.605470 -2.479096 -3.016358 -16.881386 0.265599 1.339312 2.508595 12.661522 -6.454351 13.670560 79.398556 -60.538535 -105.201237 6.784379 2.216382 30.134443 -5.210278 -55.756527 -6.422023 -145.058628 78.929390 -135.568279 -8.323840 -12.562879 -7.578595 0.038993 -0.317745 0.039029 0.415679 -57.591959 10.163475 -108.533976 82.056541 -113.205024 5.300675 -5.554130 5.162097 0.100747 0.167175 0.015511
-56.111919 46.565606 5.610783 177.276101 -31.432028 -2.632276 -0.234987 19.139246 1.581539 -0.073293 2.273791 0.212030 -0.117422 3.742505 0.350712 -0.353906 16.603435 1.494974 5.781383 18.642648 0.530877 10.431232 -1.026218 -0.861959 -1.119654 2.916487 -2.396780 -5.883334 -9.014583 -14.979958 -71.855557 -62.927629 107.643279 -2.532165 -3.010454 -16.920714 0.251775 1.365031 2.518911 12.831983 -6.472190 13.608987 79.721307 -60.600887 -105.267568 6.830324 2.104495 30.343827 -5.186272 -55.744514 -6.477077 -145.204108 78.894857 -135.724395 -8.301862 -12.614087 -7.553720 -0.000710 -0.295857 0.038952 0.365786 -57.580978 10.140531 -108.732293 82.064007 -113.410968 5.322620 -5.569378 5.152817 0.084791 0.157804 0.014081
-56.116410 46.563938 5.590683 177.312601 -31.422070 -2.661227 -0.262949 19.140869 1.586956 -0.072834 2.277709 0.210214 -0.115660 3.754515 0.345055 -0.349236 16.585983 1.503746 5.846336 18.630440 0.541716 10.542696 -1.067888 -0.860138 -1.112903 2.913048 -2.364796 -5.916178 -9.068303 -14.982107 -71.786127 -62.875970 107.603528 -2.640018 -3.025963 -16.918435 0.240666 1.404044 2.516357 12.987844 -6.505571 13.533020 79.956204 -60.614826 -105.288258 6.890069 2.003832 30.512262 -5.173680 -55.741791 -6.514149 -145.304451 78.883618 -135.806693 -8.283174 -12.678425 -7.540626 -0.001503 -0.235935 0.029116 0.275593 -57.588242 10.160037 -108.942970 82.074791 -113.624328 5.370044 -5.570273 5.146957 0.055295 0.132102 -0.002389
-56.121600 46.562987 5.570239 177.302537 -31.421832 -2.664774 -0.250744 19.149874 1.593538 -0.071710 2.284955 0.210883 -0.114078 3.757753 0.345631 -0.348188 16.575497 1.501418 5.919648 18.622173 0.557560 10.661250 -1.110921 -0.862948 -1.074924 2.946139 -2.297316 -5.960078 -9.172951 -14.974283 -71.681907 -62.762727 107.525993 -2.616901 -2.987032 -16.925691 0.234155 1.445066 2.512342 13.127977 -6.554989 13.445328 80.111467 -60.581647 -105.267835 6.957443 1.917042 30.644100 -5.144845 -55.736975 -6.530158 -145.369158 78.869674 -135.869049 -8.272876 -12.695709 -7.527870 -0.007204 -0.231319 0.032762 0.233218 -57.587370 10.167552 -109.253463 82.079979 -113.918604 5.390377 -5.610436 5.109421 0.060602 0.134419 -0.000164
